<mxfile host="app.diagrams.net" modified="2024-04-27T07:47:55.867Z" agent="Mozilla/5.0 (Macintosh; Intel Mac OS X 10_15_7) AppleWebKit/537.36 (KHTML, like Gecko) Chrome/124.0.0.0 Safari/537.36" version="24.3.1" etag="29WeShbrqFJsNIx8Pl06" type="github">
  <diagram name="第 1 页" id="TCEkxnXiP60emrn67t6N">
    <mxGraphModel>
      <root>
        <mxCell id="0" />
        <mxCell id="1" parent="0" />
      </root>
    </mxGraphModel>
  </diagram>
</mxfile>
